<?xml version="1.0" encoding="utf-8"?>
<!-- Generator: Adobe Illustrator 19.0.0, SVG Export Plug-In . SVG Version: 6.00 Build 0)  -->
<svg version="1.1" id="Layer_1" xmlns="http://www.w3.org/2000/svg" xmlns:xlink="http://www.w3.org/1999/xlink" x="0px" y="0px"
	 viewBox="0 0 16 16" enable-background="new 0 0 16 16" xml:space="preserve">
<path id="XMLID_120_" fill="#FFFFFF" d="M16,2.7c-0.3,0.2-1.1,0.5-1.8,0.6C14.7,3,15.4,2,15.5,1.3c-0.5,0.3-1.5,0.8-2.1,0.8
	c0,0,0,0,0,0C12.9,1.4,12,1,11.1,1C9.3,1,7.8,2.6,7.8,4.6c0,0.3,0,0.5,0.1,0.8h0c-2.5-0.1-5.4-1.4-7-3.7c-1,1.9-0.1,3.9,1,4.7
	c-0.4,0-1.1,0-1.4-0.4C0.4,7.2,1,8.8,3,9.4C2.6,9.7,1.9,9.6,1.6,9.5c0.1,1,1.5,2.4,3,2.4C4,12.6,2.2,13.8,0,13.4
	c1.5,1,3.3,1.6,5.2,1.6c5.3,0,9.5-4.6,9.2-10.4l0,0c0,0,0,0,0,0c0,0,0,0,0-0.1C14.9,4.1,15.5,3.5,16,2.7z"/>
</svg>
